#define cc6fe839a600494aa9656c9c2bbda94eJgYbw6VDbRBKJzca_width 128
#define cc6fe839a600494aa9656c9c2bbda94eJgYbw6VDbRBKJzca_height 128
static char cc6fe839a600494aa9656c9c2bbda94eJgYbw6VDbRBKJzca_bits[] = {
  0x00, 0x00, 0x00, 0x00, 0x00, 0x00, 0x00, 0x00, 0x00, 0x00, 0x00, 0x00, 
  0x00, 0x00, 0x00, 0x00, 0x00, 0x00, 0x00, 0x00, 0x00, 0x00, 0x00, 0x00, 
  0x00, 0x00, 0x00, 0x00, 0x00, 0x00, 0x00, 0x00, 0x00, 0x00, 0x00, 0x00, 
  0x00, 0x00, 0x00, 0x00, 0x00, 0x00, 0x00, 0x00, 0x00, 0x00, 0x00, 0x00, 
  0x00, 0x00, 0x00, 0x00, 0x00, 0x00, 0x00, 0x00, 0x00, 0x00, 0x00, 0x00, 
  0x00, 0x00, 0x00, 0x00, 0x00, 0x00, 0x00, 0x00, 0x00, 0x00, 0x00, 0x00, 
  0x00, 0x00, 0x00, 0x00, 0x00, 0x00, 0x00, 0x00, 0x00, 0x00, 0x00, 0x00, 
  0x00, 0x00, 0x00, 0x00, 0x00, 0x00, 0x00, 0x00, 0x00, 0x00, 0x00, 0x00, 
  0x00, 0x00, 0x00, 0x00, 0x00, 0x00, 0x00, 0x00, 0x00, 0x00, 0x00, 0x00, 
  0x00, 0x00, 0x00, 0x00, 0x00, 0x00, 0x00, 0x00, 0x00, 0x00, 0x00, 0x00, 
  0x00, 0x00, 0x00, 0x00, 0x00, 0x00, 0x00, 0x00, 0x00, 0x00, 0x00, 0x00, 
  0x00, 0x00, 0x00, 0x00, 0x00, 0x00, 0x00, 0x00, 0x00, 0x00, 0x00, 0x00, 
  0x00, 0x00, 0x00, 0x00, 0x00, 0x00, 0x00, 0x00, 0x00, 0x00, 0x00, 0x00, 
  0x00, 0x00, 0x00, 0x00, 0x00, 0x00, 0x00, 0x00, 0x00, 0x00, 0x00, 0x00, 
  0x00, 0x00, 0x00, 0x00, 0x00, 0x00, 0x00, 0x00, 0x00, 0x00, 0x00, 0x00, 
  0x00, 0x00, 0x00, 0x00, 0x00, 0x00, 0x00, 0x00, 0x00, 0x00, 0x00, 0x00, 
  0x00, 0x00, 0x00, 0x00, 0x00, 0x00, 0x00, 0x00, 0x00, 0x00, 0x00, 0x00, 
  0x00, 0x00, 0x00, 0x00, 0x00, 0x00, 0x00, 0x00, 0x00, 0x00, 0x00, 0x00, 
  0x00, 0x00, 0x00, 0x00, 0x00, 0x00, 0x00, 0x00, 0x00, 0x00, 0x00, 0x00, 
  0x00, 0x00, 0x00, 0x00, 0x00, 0x00, 0x00, 0x00, 0x00, 0x00, 0x00, 0x00, 
  0x00, 0x00, 0x00, 0x00, 0x00, 0x00, 0x00, 0x00, 0x00, 0x00, 0x00, 0x00, 
  0x00, 0x00, 0x00, 0x00, 0x00, 0x00, 0x00, 0x00, 0x00, 0x00, 0x00, 0x00, 
  0x00, 0x00, 0x00, 0x00, 0x00, 0x00, 0x00, 0x00, 0x00, 0x00, 0x00, 0x00, 
  0x00, 0x00, 0x00, 0x00, 0x00, 0x00, 0x00, 0x00, 0x00, 0x00, 0x00, 0x00, 
  0x00, 0x00, 0x00, 0x00, 0x00, 0x00, 0x00, 0x00, 0x00, 0x00, 0x00, 0x00, 
  0x00, 0x00, 0x00, 0x00, 0x00, 0xF8, 0xFF, 0xFF, 0xFF, 0xFF, 0xFF, 0xFF, 
  0x00, 0x00, 0x00, 0x00, 0x00, 0x00, 0x00, 0x00, 0x00, 0xF8, 0xFF, 0xFF, 
  0xFF, 0xFF, 0xFF, 0xFF, 0x00, 0x00, 0x00, 0x00, 0x00, 0x00, 0x00, 0x00, 
  0x00, 0xF8, 0xFF, 0xFF, 0xFF, 0xFF, 0xFF, 0xFF, 0x00, 0x00, 0x00, 0x00, 
  0x00, 0x00, 0x00, 0x00, 0x00, 0xF8, 0xFF, 0xFF, 0xFF, 0xFF, 0xFF, 0xFF, 
  0x00, 0x00, 0x00, 0x00, 0x00, 0x00, 0x00, 0x00, 0x00, 0x78, 0x00, 0x00, 
  0x00, 0x00, 0x00, 0xF0, 0x00, 0x00, 0x00, 0x00, 0x00, 0x00, 0x00, 0x00, 
  0x00, 0x78, 0x00, 0x00, 0x00, 0x00, 0x00, 0xF0, 0x00, 0x00, 0x00, 0x00, 
  0x00, 0x00, 0x00, 0x00, 0x00, 0x78, 0x00, 0x00, 0x00, 0x00, 0x00, 0xF0, 
  0x00, 0x00, 0x00, 0x00, 0x00, 0x00, 0x00, 0x00, 0x00, 0x78, 0x00, 0x00, 
  0xF8, 0x00, 0x00, 0xF0, 0x00, 0x00, 0x00, 0x00, 0x00, 0x00, 0x00, 0x00, 
  0x00, 0x78, 0x00, 0x80, 0xFF, 0x0F, 0x00, 0xF0, 0x00, 0x00, 0x00, 0x00, 
  0x00, 0x00, 0x00, 0x00, 0x00, 0x78, 0x00, 0xE0, 0xFF, 0x3F, 0x00, 0xF0, 
  0x00, 0x00, 0x00, 0x00, 0x00, 0x00, 0x00, 0x00, 0x00, 0x78, 0x00, 0xF8, 
  0xFF, 0xFF, 0x00, 0xF0, 0x00, 0x00, 0x00, 0x00, 0x00, 0x00, 0x00, 0x00, 
  0x00, 0x78, 0x00, 0xFC, 0x8F, 0xFF, 0x01, 0xF0, 0x00, 0x00, 0x00, 0x00, 
  0x00, 0x00, 0x00, 0x00, 0x00, 0x78, 0x00, 0xFF, 0x00, 0xF8, 0x07, 0xF0, 
  0x00, 0x00, 0x7E, 0x00, 0xE0, 0x07, 0x00, 0x00, 0x00, 0x78, 0x80, 0x3F, 
  0x00, 0xE0, 0x0F, 0xF0, 0x00, 0x00, 0xFF, 0x00, 0xF0, 0x0F, 0x00, 0x00, 
  0x00, 0x78, 0x80, 0x0F, 0x00, 0x80, 0x0F, 0xF0, 0x00, 0x80, 0xFF, 0x00, 
  0xF8, 0x0F, 0x00, 0x00, 0x00, 0x78, 0xC0, 0x07, 0x00, 0x00, 0x1F, 0xF0, 
  0x00, 0x80, 0xFF, 0x01, 0xF8, 0x1F, 0x00, 0x00, 0x00, 0x78, 0xE0, 0x03, 
  0x00, 0x00, 0x3E, 0xF0, 0x00, 0x80, 0xE7, 0x01, 0x78, 0x1E, 0x00, 0x00, 
  0x00, 0x78, 0xE0, 0x01, 0x00, 0x00, 0x3E, 0xF0, 0x00, 0x80, 0xE7, 0x01, 
  0x78, 0x1E, 0x00, 0x00, 0x00, 0x78, 0xF0, 0x01, 0x00, 0x00, 0x7C, 0xF0, 
  0x00, 0x80, 0xE7, 0x01, 0x78, 0x1E, 0x00, 0x00, 0x00, 0x78, 0xF0, 0x00, 
  0x00, 0x00, 0x78, 0xF0, 0x00, 0x80, 0xE7, 0x01, 0x78, 0x1E, 0x00, 0x00, 
  0x00, 0x78, 0xF8, 0x00, 0x00, 0x00, 0xF8, 0xF0, 0x00, 0x80, 0xE7, 0x01, 
  0x78, 0x1E, 0x00, 0x00, 0x00, 0x78, 0x78, 0x00, 0x00, 0x00, 0xF0, 0xF0, 
  0x00, 0x80, 0xE7, 0x01, 0x78, 0x1E, 0x00, 0x00, 0x00, 0x78, 0x78, 0x40, 
  0x00, 0x10, 0xF0, 0xF0, 0x00, 0x80, 0xE7, 0x01, 0x78, 0x1E, 0x00, 0x00, 
  0x00, 0x78, 0x78, 0xE0, 0x00, 0x38, 0xF0, 0xF0, 0x00, 0x80, 0xE7, 0x01, 
  0x78, 0x1E, 0x00, 0x00, 0x00, 0x78, 0x78, 0xE0, 0x01, 0x3C, 0xF0, 0xF0, 
  0x00, 0x80, 0xE7, 0x01, 0x78, 0x1E, 0x00, 0x00, 0x00, 0x78, 0x78, 0xE0, 
  0x01, 0x3C, 0xF0, 0xF0, 0x00, 0x80, 0xE7, 0x01, 0x78, 0x1E, 0x00, 0x00, 
  0x00, 0x78, 0x78, 0xE0, 0x01, 0x3C, 0xF0, 0xF0, 0x00, 0x80, 0xE7, 0x01, 
  0x78, 0x1E, 0x00, 0x00, 0x00, 0x78, 0x78, 0xE0, 0x01, 0x3C, 0xF0, 0xF0, 
  0x00, 0x80, 0xE7, 0x01, 0x78, 0x1E, 0x00, 0x00, 0x00, 0x78, 0x78, 0xE0, 
  0x01, 0x3C, 0xF0, 0xF0, 0x00, 0xF8, 0xFF, 0xFF, 0xFF, 0xFF, 0x01, 0x00, 
  0x00, 0x78, 0x78, 0xE0, 0x00, 0x38, 0xF0, 0xF0, 0x00, 0xFE, 0xFF, 0xFF, 
  0xFF, 0xFF, 0x07, 0x00, 0x00, 0x78, 0x78, 0x00, 0x00, 0x00, 0xF0, 0xF0, 
  0x00, 0xFF, 0xFF, 0xFF, 0xFF, 0xFF, 0x0F, 0x00, 0x00, 0x78, 0xF8, 0x00, 
  0x00, 0x00, 0xF8, 0xF0, 0x80, 0xFF, 0xFF, 0xFF, 0xFF, 0xFF, 0x1F, 0x00, 
  0x00, 0x78, 0xF0, 0x00, 0x00, 0x00, 0x78, 0xF0, 0x80, 0x0F, 0x00, 0x00, 
  0x00, 0x00, 0x1F, 0x00, 0x00, 0x78, 0xF0, 0x01, 0x00, 0x00, 0x7C, 0xF0, 
  0xC0, 0x07, 0x00, 0x00, 0x00, 0x00, 0x1E, 0x00, 0x00, 0x78, 0xF0, 0x01, 
  0x00, 0x00, 0x7C, 0xF0, 0xC0, 0x03, 0x00, 0x00, 0x00, 0x00, 0x1E, 0x00, 
  0x00, 0x78, 0xE0, 0x03, 0x00, 0x00, 0x3E, 0xF0, 0x80, 0x07, 0x00, 0x00, 
  0x00, 0x00, 0x1E, 0x00, 0x00, 0x78, 0xC0, 0x07, 0x00, 0x00, 0x1F, 0xF0, 
  0x80, 0xFF, 0xFF, 0xFF, 0xFF, 0xFF, 0x1F, 0x00, 0x00, 0x78, 0xC0, 0x0F, 
  0x00, 0x80, 0x1F, 0xF0, 0x80, 0xFF, 0xFF, 0xFF, 0xFF, 0xFF, 0x0F, 0x00, 
  0x00, 0x78, 0x80, 0x1F, 0x00, 0xC0, 0x0F, 0xF0, 0x00, 0xFF, 0xFF, 0xFF, 
  0xFF, 0xFF, 0x0F, 0x00, 0x00, 0x78, 0x00, 0x7F, 0x00, 0xF0, 0x07, 0xF0, 
  0x00, 0xFE, 0xFF, 0xFF, 0xFF, 0xFF, 0x03, 0x00, 0x00, 0x78, 0x00, 0xFE, 
  0x01, 0xFC, 0x03, 0xF0, 0x00, 0xF8, 0xFF, 0xFF, 0xFF, 0xF7, 0x00, 0x00, 
  0x00, 0x78, 0x00, 0xFC, 0xFF, 0xFF, 0x01, 0xF0, 0x00, 0xF0, 0x00, 0x00, 
  0x00, 0xF0, 0x00, 0x00, 0x00, 0x78, 0x00, 0xF0, 0xFF, 0x7F, 0x00, 0xF0, 
  0x00, 0xF0, 0x00, 0x00, 0x00, 0xF0, 0x00, 0x00, 0x00, 0x78, 0x00, 0xC0, 
  0xFF, 0x1F, 0x00, 0xF0, 0x00, 0xF0, 0x00, 0x00, 0x00, 0xF0, 0x00, 0x00, 
  0x00, 0x78, 0x00, 0x00, 0xFF, 0x07, 0x00, 0xF0, 0x00, 0xF0, 0x00, 0x00, 
  0x00, 0xF0, 0x00, 0x00, 0x00, 0x78, 0x00, 0x00, 0x00, 0x00, 0x00, 0xF0, 
  0x00, 0xF0, 0x00, 0x00, 0x00, 0xF0, 0x00, 0x00, 0x00, 0x78, 0x00, 0x00, 
  0x00, 0x00, 0x00, 0xF0, 0x00, 0xF0, 0x00, 0x00, 0x00, 0xF0, 0x00, 0x00, 
  0x00, 0x78, 0x00, 0x00, 0x00, 0x00, 0x00, 0xF0, 0x00, 0xF0, 0x00, 0x00, 
  0x00, 0xF0, 0x00, 0x00, 0x00, 0x78, 0x00, 0x00, 0x00, 0x00, 0x00, 0xF0, 
  0x00, 0xF0, 0x00, 0x00, 0x00, 0xF0, 0x00, 0x00, 0x00, 0xF8, 0xFF, 0xFF, 
  0xFF, 0xFF, 0xFF, 0xFF, 0x00, 0xF0, 0x00, 0x00, 0x00, 0xF0, 0x00, 0x00, 
  0x00, 0xF8, 0xFF, 0xFF, 0xFF, 0xFF, 0xFF, 0xFF, 0x00, 0xF0, 0x00, 0x00, 
  0x00, 0xF0, 0x00, 0x00, 0x00, 0xF8, 0xFF, 0xFF, 0xFF, 0xFF, 0xFF, 0xFF, 
  0x00, 0xF0, 0x00, 0x00, 0x00, 0xF0, 0x00, 0x00, 0x00, 0xF0, 0xFF, 0xFF, 
  0xFF, 0xFF, 0xFF, 0x7F, 0x00, 0xF0, 0x00, 0x00, 0x00, 0xF0, 0x00, 0x00, 
  0x00, 0x00, 0x00, 0x00, 0x00, 0x00, 0x00, 0x00, 0x00, 0xF0, 0x00, 0x00, 
  0x00, 0x78, 0x00, 0x00, 0x00, 0x00, 0x00, 0x00, 0x00, 0x00, 0x00, 0x00, 
  0x00, 0xE0, 0x01, 0x00, 0x00, 0x78, 0x00, 0x00, 0x00, 0x00, 0x00, 0x00, 
  0x00, 0x00, 0x00, 0x00, 0x00, 0xE0, 0x01, 0x00, 0x00, 0x7C, 0x00, 0x00, 
  0x00, 0x00, 0x00, 0x00, 0x00, 0x00, 0x00, 0x00, 0x00, 0xE0, 0x03, 0x00, 
  0x00, 0x3C, 0x00, 0x00, 0x00, 0x00, 0x00, 0x00, 0x00, 0x00, 0x00, 0x00, 
  0x00, 0xC0, 0x07, 0x00, 0x00, 0x3E, 0x00, 0x00, 0x00, 0x00, 0x00, 0x00, 
  0x00, 0x00, 0x00, 0x00, 0x00, 0x80, 0x0F, 0x00, 0x00, 0x1F, 0x00, 0x00, 
  0x00, 0x00, 0x00, 0x00, 0x00, 0x7F, 0x00, 0x00, 0x00, 0x80, 0x1F, 0x00, 
  0x80, 0x0F, 0x00, 0x00, 0x00, 0x00, 0x00, 0x00, 0x80, 0xFF, 0x00, 0x00, 
  0x00, 0x00, 0x3F, 0x00, 0xC0, 0x0F, 0x00, 0x00, 0x00, 0x00, 0x00, 0x00, 
  0xC0, 0xFF, 0x00, 0x00, 0x00, 0x00, 0xFE, 0x00, 0xF0, 0x07, 0x00, 0x00, 
  0x00, 0x00, 0x00, 0x00, 0xE0, 0xFF, 0x01, 0x00, 0x00, 0x00, 0xFC, 0x07, 
  0xFE, 0x03, 0x00, 0x00, 0x00, 0x00, 0x00, 0x00, 0xE0, 0xE3, 0x01, 0x00, 
  0x00, 0x00, 0xF8, 0xFF, 0xFF, 0x00, 0x00, 0x00, 0x00, 0x00, 0x00, 0x00, 
  0xE0, 0xE1, 0x01, 0x00, 0x00, 0x00, 0xE0, 0xFF, 0x7F, 0x00, 0x00, 0x00, 
  0x00, 0x00, 0x00, 0x00, 0xE0, 0xE1, 0x01, 0x00, 0x00, 0x00, 0x80, 0xFF, 
  0x1F, 0x00, 0x00, 0x00, 0x00, 0x00, 0x00, 0x00, 0xE0, 0xE1, 0x03, 0x00, 
  0x00, 0x00, 0x00, 0xFF, 0x0F, 0x00, 0x00, 0x00, 0x00, 0x00, 0x00, 0x00, 
  0xE0, 0xC1, 0x03, 0x00, 0x00, 0x00, 0x80, 0x0F, 0x0F, 0x00, 0x00, 0x00, 
  0x00, 0x00, 0x00, 0x00, 0xE0, 0xC1, 0x03, 0x00, 0x00, 0x00, 0x80, 0x07, 
  0x0F, 0x00, 0x00, 0x00, 0x00, 0x00, 0x00, 0x00, 0xE0, 0xC3, 0x03, 0x00, 
  0x00, 0x00, 0x80, 0x87, 0x0F, 0x00, 0x00, 0x00, 0x00, 0x00, 0x00, 0x00, 
  0xC0, 0xC3, 0x07, 0x00, 0x00, 0x00, 0xC0, 0x87, 0x07, 0x00, 0x00, 0x00, 
  0x00, 0x00, 0x00, 0x00, 0xC0, 0x83, 0x07, 0x00, 0x00, 0x00, 0xC0, 0x83, 
  0x07, 0x00, 0x00, 0x00, 0x00, 0x00, 0x00, 0x00, 0xC0, 0x87, 0x0F, 0x00, 
  0x00, 0x00, 0xE0, 0x83, 0x07, 0x00, 0x00, 0x00, 0x00, 0x00, 0x00, 0x00, 
  0x80, 0x07, 0x1F, 0x00, 0x00, 0x00, 0xF0, 0xC1, 0x07, 0x00, 0x00, 0x00, 
  0x00, 0x00, 0x00, 0x00, 0x80, 0x07, 0x3F, 0x00, 0x00, 0x00, 0xF8, 0xC1, 
  0x03, 0x00, 0x00, 0x00, 0x00, 0x00, 0x00, 0x00, 0x80, 0x0F, 0x7E, 0x00, 
  0x00, 0x00, 0xFC, 0xE0, 0x03, 0x00, 0x00, 0x00, 0x00, 0x00, 0x00, 0x00, 
  0x00, 0x1F, 0xFC, 0x00, 0x00, 0x00, 0x7E, 0xF0, 0x01, 0x00, 0x00, 0x00, 
  0x00, 0x00, 0x00, 0x00, 0x00, 0x1F, 0xF8, 0x07, 0x00, 0xC0, 0x3F, 0xF0, 
  0x01, 0x00, 0x00, 0x00, 0x00, 0x00, 0x00, 0x00, 0x00, 0x3E, 0xF0, 0xFF, 
  0xFF, 0xFF, 0x1F, 0xF8, 0x00, 0x00, 0x00, 0x00, 0x00, 0x00, 0x00, 0x00, 
  0x00, 0x7C, 0xE0, 0xFF, 0xFF, 0xFF, 0x0F, 0x7C, 0x00, 0x00, 0x00, 0x00, 
  0x00, 0x00, 0x00, 0x00, 0x00, 0xFC, 0x80, 0xFF, 0xFF, 0xFF, 0x03, 0x7E, 
  0x00, 0x00, 0x00, 0x00, 0x00, 0x00, 0x00, 0x00, 0x00, 0xF8, 0x01, 0xFC, 
  0xFF, 0x7F, 0x00, 0x3F, 0x00, 0x00, 0x00, 0x00, 0x00, 0x00, 0x00, 0x00, 
  0x00, 0xF0, 0x03, 0x00, 0x00, 0x00, 0x80, 0x1F, 0x00, 0x00, 0x00, 0x00, 
  0x00, 0x00, 0x00, 0x00, 0x00, 0xE0, 0x0F, 0x00, 0x00, 0x00, 0xE0, 0x0F, 
  0x00, 0x00, 0x00, 0x00, 0x00, 0x00, 0x00, 0x00, 0x00, 0xC0, 0x3F, 0x00, 
  0x00, 0x00, 0xF8, 0x07, 0x00, 0x00, 0x00, 0x00, 0x00, 0x00, 0x00, 0x00, 
  0x00, 0x00, 0xFF, 0x01, 0x00, 0x00, 0xFF, 0x03, 0x00, 0x00, 0x00, 0x00, 
  0x00, 0x00, 0x00, 0x00, 0x00, 0x00, 0xFE, 0xFF, 0xFF, 0xFF, 0xFF, 0x00, 
  0x00, 0x00, 0x00, 0x00, 0x00, 0x00, 0x00, 0x00, 0x00, 0x00, 0xF8, 0xFF, 
  0xFF, 0xFF, 0x3F, 0x00, 0x00, 0x00, 0x00, 0x00, 0x00, 0x00, 0x00, 0x00, 
  0x00, 0x00, 0xE0, 0xFF, 0xFF, 0xFF, 0x0F, 0x00, 0x00, 0x00, 0x00, 0x00, 
  0x00, 0x00, 0x00, 0x00, 0x00, 0x00, 0x00, 0xFF, 0xFF, 0xFF, 0x01, 0x00, 
  0x00, 0x00, 0x00, 0x00, 0x00, 0x00, 0x00, 0x00, 0x00, 0x00, 0x00, 0x00, 
  0x00, 0x01, 0x00, 0x00, 0x00, 0x00, 0x00, 0x00, 0x00, 0x00, 0x00, 0x00, 
  0x00, 0x00, 0x00, 0x00, 0x00, 0x00, 0x00, 0x00, 0x00, 0x00, 0x00, 0x00, 
  0x00, 0x00, 0x00, 0x00, 0x00, 0x00, 0x00, 0x00, 0x00, 0x00, 0x00, 0x00, 
  0x00, 0x00, 0x00, 0x00, 0x00, 0x00, 0x00, 0x00, 0x00, 0x00, 0x00, 0x00, 
  0x00, 0x00, 0x00, 0x00, 0x00, 0x00, 0x00, 0x00, 0x00, 0x00, 0x00, 0x00, 
  0x00, 0x00, 0x00, 0x00, 0x00, 0x00, 0x00, 0x00, 0x00, 0x00, 0x00, 0x00, 
  0x00, 0x00, 0x00, 0x00, 0x00, 0x00, 0x00, 0x00, 0x00, 0x00, 0x00, 0x00, 
  0x00, 0x00, 0x00, 0x00, 0x00, 0x00, 0x00, 0x00, 0x00, 0x00, 0x00, 0x00, 
  0x00, 0x00, 0x00, 0x00, 0x00, 0x00, 0x00, 0x00, 0x00, 0x00, 0x00, 0x00, 
  0x00, 0x00, 0x00, 0x00, 0x00, 0x00, 0x00, 0x00, 0x00, 0x00, 0x00, 0x00, 
  0x00, 0x00, 0x00, 0x00, 0x00, 0x00, 0x00, 0x00, 0x00, 0x00, 0x00, 0x00, 
  0x00, 0x00, 0x00, 0x00, 0x00, 0x00, 0x00, 0x00, 0x00, 0x00, 0x00, 0x00, 
  0x00, 0x00, 0x00, 0x00, 0x00, 0x00, 0x00, 0x00, 0x00, 0x00, 0x00, 0x00, 
  0x00, 0x00, 0x00, 0x00, 0x00, 0x00, 0x00, 0x00, 0x00, 0x00, 0x00, 0x00, 
  0x00, 0x00, 0x00, 0x00, 0x00, 0x00, 0x00, 0x00, 0x00, 0x00, 0x00, 0x00, 
  0x00, 0x00, 0x00, 0x00, 0x00, 0x00, 0x00, 0x00, 0x00, 0x00, 0x00, 0x00, 
  0x00, 0x00, 0x00, 0x00, 0x00, 0x00, 0x00, 0x00, 0x00, 0x00, 0x00, 0x00, 
  0x00, 0x00, 0x00, 0x00, 0x00, 0x00, 0x00, 0x00, 0x00, 0x00, 0x00, 0x00, 
  0x00, 0x00, 0x00, 0x00, 0x00, 0x00, 0x00, 0x00, 0x00, 0x00, 0x00, 0x00, 
  0x00, 0x00, 0x00, 0x00, 0x00, 0x00, 0x00, 0x00, 0x00, 0x00, 0x00, 0x00, 
  0x00, 0x00, 0x00, 0x00, 0x00, 0x00, 0x00, 0x00, 0x00, 0x00, 0x00, 0x00, 
  0x00, 0x00, 0x00, 0x00, 0x00, 0x00, 0x00, 0x00, 0x00, 0x00, 0x00, 0x00, 
  0x00, 0x00, 0x00, 0x00, 0x00, 0x00, 0x00, 0x00, 0x00, 0x00, 0x00, 0x00, 
  0x00, 0x00, 0x00, 0x00, 0x00, 0x00, 0x00, 0x00, 0x00, 0x00, 0x00, 0x00, 
  0x00, 0x00, 0x00, 0x00, 0x00, 0x00, 0x00, 0x00, };
