#define tomada481708286701_width 48
#define tomada481708286701_height 48
static char tomada481708286701_bits[] = {
  0x00, 0x00, 0x00, 0x00, 0x00, 0x00, 0x00, 0x00, 0x00, 0x00, 0x00, 0x00, 
  0x00, 0x00, 0x00, 0x00, 0x00, 0x00, 0x00, 0x00, 0x00, 0x00, 0x00, 0x00, 
  0x00, 0x00, 0x00, 0x00, 0x00, 0x00, 0x00, 0x00, 0x00, 0x00, 0x00, 0x00, 
  0x00, 0x00, 0x00, 0x00, 0x00, 0x00, 0xF0, 0xFF, 0xFF, 0x00, 0x00, 0x00, 
  0xB0, 0x6A, 0xD6, 0x00, 0x00, 0x00, 0x30, 0x00, 0xC0, 0x00, 0x00, 0x00, 
  0x30, 0xF8, 0x81, 0x00, 0x00, 0x00, 0x30, 0xBE, 0xC7, 0x00, 0x80, 0x00, 
  0x30, 0x06, 0xCE, 0xC0, 0xE1, 0x01, 0x30, 0x03, 0x8C, 0x60, 0x61, 0x01, 
  0xB0, 0x01, 0xD8, 0x40, 0xE3, 0x01, 0xB0, 0x09, 0x98, 0x60, 0xA1, 0x01, 
  0xB0, 0x09, 0xD9, 0x40, 0xA1, 0x01, 0xB0, 0x09, 0x93, 0xE0, 0xE7, 0x01, 
  0xB0, 0x09, 0xD8, 0xF8, 0xFF, 0x0F, 0xB0, 0x01, 0x98, 0x0C, 0x00, 0x0C, 
  0x30, 0x03, 0x8C, 0x0C, 0x00, 0x0C, 0x30, 0x06, 0xCE, 0xF8, 0xFF, 0x07, 
  0x30, 0xDC, 0xC7, 0xB0, 0x11, 0x03, 0x30, 0xF8, 0x81, 0x30, 0x00, 0x03, 
  0x30, 0x00, 0xC0, 0x30, 0x00, 0x03, 0xB0, 0xA6, 0xDD, 0x30, 0x00, 0x02, 
  0xF0, 0xFF, 0xFF, 0x30, 0x00, 0x03, 0x00, 0x00, 0x00, 0x20, 0x00, 0x03, 
  0x00, 0x00, 0x00, 0x60, 0x80, 0x01, 0x00, 0x80, 0x03, 0xC0, 0x80, 0x01, 
  0x00, 0xC0, 0x03, 0x80, 0xF7, 0x00, 0x00, 0x40, 0x06, 0x00, 0x3F, 0x00, 
  0x00, 0xC0, 0x06, 0x00, 0x32, 0x00, 0x00, 0xC0, 0x06, 0x00, 0x13, 0x00, 
  0x00, 0xC0, 0x0C, 0x00, 0x1B, 0x00, 0x00, 0x80, 0x1D, 0xC0, 0x19, 0x00, 
  0x00, 0x80, 0xF9, 0xFF, 0x0C, 0x00, 0x00, 0x00, 0xE3, 0x7F, 0x06, 0x00, 
  0x00, 0x00, 0x0E, 0x00, 0x07, 0x00, 0x00, 0x00, 0xFC, 0xD6, 0x01, 0x00, 
  0x00, 0x00, 0xF0, 0x7F, 0x00, 0x00, 0x00, 0x00, 0x00, 0x00, 0x00, 0x00, 
  0x00, 0x00, 0x00, 0x00, 0x00, 0x00, 0x00, 0x00, 0x00, 0x00, 0x00, 0x00, 
  0x00, 0x00, 0x00, 0x00, 0x00, 0x00, 0x00, 0x00, 0x00, 0x00, 0x00, 0x00, 
  0x00, 0x00, 0x00, 0x00, 0x00, 0x00, 0x00, 0x00, 0x00, 0x00, 0x00, 0x00, 
  };
