#define 246a4d32c6914e448214d274ec94c3d8j112uZOVzZnuKq1r_width 48
#define 246a4d32c6914e448214d274ec94c3d8j112uZOVzZnuKq1r_height 48
static char 246a4d32c6914e448214d274ec94c3d8j112uZOVzZnuKq1r_bits[] = {
  0x00, 0x00, 0x00, 0x00, 0x00, 0x00, 0x00, 0x00, 0x00, 0x00, 0x00, 0x00, 
  0x00, 0x00, 0x00, 0x00, 0x00, 0x00, 0x00, 0x00, 0x00, 0x00, 0x00, 0x00, 
  0x00, 0x00, 0x00, 0x00, 0x00, 0x00, 0x00, 0x00, 0x00, 0x00, 0x00, 0x00, 
  0x00, 0x00, 0xFC, 0x3F, 0x00, 0x00, 0x00, 0xC0, 0xFF, 0xFF, 0x03, 0x00, 
  0x00, 0xF8, 0xFF, 0xFF, 0x1F, 0x00, 0x00, 0xFE, 0xFF, 0xFF, 0x7F, 0x00, 
  0x80, 0xFF, 0xFF, 0xFF, 0xFF, 0x01, 0xE0, 0xFF, 0xFF, 0xFF, 0xFF, 0x07, 
  0xF8, 0xFF, 0x07, 0xE0, 0xFF, 0x1F, 0xF8, 0x7F, 0x00, 0x00, 0xFE, 0x1F, 
  0xF8, 0x0F, 0x00, 0x00, 0xF0, 0x1F, 0xF0, 0x03, 0x00, 0x00, 0xC0, 0x0F, 
  0xE0, 0x00, 0x00, 0x00, 0x00, 0x07, 0x40, 0x00, 0x00, 0x00, 0x00, 0x02, 
  0x00, 0x00, 0xF8, 0x1F, 0x00, 0x00, 0x00, 0x00, 0xFF, 0xFF, 0x00, 0x00, 
  0x00, 0xE0, 0xFF, 0xFF, 0x07, 0x00, 0x00, 0xF0, 0xFF, 0xFF, 0x0F, 0x00, 
  0x00, 0xFC, 0xFF, 0xFF, 0x3F, 0x00, 0x00, 0xFC, 0xFF, 0xFF, 0x3F, 0x00, 
  0x00, 0xF8, 0x0F, 0xF0, 0x1F, 0x00, 0x00, 0xF0, 0x01, 0x80, 0x0F, 0x00, 
  0x00, 0x70, 0x00, 0x00, 0x06, 0x00, 0x00, 0x00, 0x00, 0x00, 0x00, 0x00, 
  0x00, 0x00, 0x00, 0x00, 0x00, 0x00, 0x00, 0x00, 0x00, 0x00, 0x00, 0x00, 
  0x00, 0x00, 0xE0, 0x07, 0x00, 0x00, 0x00, 0x00, 0xFC, 0x0F, 0x00, 0x00, 
  0x00, 0x00, 0xFE, 0x07, 0x00, 0x04, 0x00, 0x00, 0xFC, 0x07, 0x00, 0x0E, 
  0x00, 0x00, 0xFC, 0x07, 0x00, 0x1F, 0x00, 0x00, 0xF8, 0x03, 0x80, 0x0F, 
  0x00, 0x00, 0xF0, 0x03, 0xC1, 0x07, 0x00, 0x00, 0xE0, 0x83, 0xE3, 0x03, 
  0x00, 0x00, 0xE0, 0xC3, 0xF7, 0x01, 0x00, 0x00, 0xC0, 0x83, 0xFF, 0x00, 
  0x00, 0x00, 0x80, 0x01, 0x7F, 0x00, 0x00, 0x00, 0x00, 0x00, 0x3E, 0x00, 
  0x00, 0x00, 0x00, 0x00, 0x1C, 0x00, 0x00, 0x00, 0x00, 0x00, 0x08, 0x00, 
  0x00, 0x00, 0x00, 0x00, 0x00, 0x00, 0x00, 0x00, 0x00, 0x00, 0x00, 0x00, 
  0x00, 0x00, 0x00, 0x00, 0x00, 0x00, 0x00, 0x00, 0x00, 0x00, 0x00, 0x00, 
  };
